<?xml version="1.0"?>
<svg xmlns="http://www.w3.org/2000/svg" id="Capa_1" enable-background="new 0 0 512 512" height="512px" viewBox="0 0 512 512" width="512px"><g><g><path d="m512 256c0-20.375-12.748-37.818-30.681-44.804 4.771-4.556 8.593-10.089 11.194-16.367 4.914-11.864 4.914-24.931 0-36.795-7.797-18.825-26.248-30.062-45.491-29.653 2.664-6.035 4.078-12.61 4.078-19.406 0-12.842-5-24.914-14.08-33.993-9.08-9.081-21.152-14.082-33.994-14.082-6.796 0-13.37 1.414-19.406 4.078.408-19.242-10.829-37.694-29.653-45.49-18.833-7.802-39.837-2.691-53.153 11.218-6.98-17.947-24.43-30.706-44.814-30.706s-37.834 12.759-44.814 30.705c-13.317-13.908-34.32-19.018-53.153-11.218-18.824 7.797-30.061 26.248-29.653 45.49-6.035-2.665-12.61-4.078-19.405-4.078-12.841 0-24.914 5.001-33.994 14.081s-14.081 21.153-14.081 33.995c0 6.795 1.414 13.37 4.078 19.405-19.242-.408-37.694 10.83-45.491 29.654-4.914 11.863-4.914 24.931 0 36.795 2.601 6.278 6.423 11.811 11.194 16.368-17.933 6.985-30.681 24.428-30.681 44.803s12.747 37.818 30.681 44.804c-4.771 4.556-8.594 10.09-11.194 16.368-4.914 11.864-4.914 24.932 0 36.795 7.661 18.495 25.603 29.679 44.478 29.678.337 0 .675-.017 1.013-.024-2.664 6.035-4.078 12.61-4.078 19.405 0 12.842 5.001 24.914 14.081 33.993 9.08 9.081 21.152 14.082 33.994 14.082 6.796 0 13.37-1.414 19.405-4.078-.408 19.242 10.829 37.694 29.653 45.49 5.997 2.484 12.214 3.66 18.334 3.66 13.098 0 25.745-5.391 34.821-14.869 6.984 17.941 24.431 30.696 44.812 30.696 20.375 0 37.818-12.748 44.804-30.681 4.556 4.771 10.089 8.593 16.367 11.194 5.933 2.458 12.164 3.687 18.397 3.686 6.232 0 12.466-1.229 18.397-3.686 18.824-7.797 30.061-26.249 29.653-45.491 6.036 2.664 12.61 4.078 19.406 4.078 12.842 0 24.914-5 33.993-14.08 9.081-9.08 14.082-21.152 14.082-33.994 0-6.795-1.414-13.37-4.078-19.405.338.007.676.024 1.013.024 18.874 0 36.818-11.185 44.478-29.678 7.801-18.833 2.691-39.837-11.218-53.153 17.947-6.98 30.706-24.43 30.706-44.814zm-51.245-110.126c8.162 3.381 14.52 9.737 17.9 17.899 6.979 16.85-1.052 36.234-17.9 43.214-2.197.91-4.513 1.586-6.884 2.008-.049.009-.099.019-.147.028l-57.707 11.488c2.519-6.993 2.552-14.904-.51-22.296-3.059-7.385-8.668-12.954-15.385-16.119l48.851-32.651c.063-.04.122-.085.185-.126 1.977-1.378 4.09-2.537 6.284-3.446 8.161-3.381 17.151-3.38 25.313.001zm-84.686 94.195c8.784 0 15.931 7.146 15.931 15.931s-7.146 15.931-15.931 15.931c-.891 0-1.79-.077-2.684-.229-.348-.074-.696-.143-1.047-.205-.048-.009-.096-.011-.144-.018l-26.771-5.321c.377-3.336.577-6.724.577-10.158 0-3.423-.199-6.8-.573-10.125l28.115-5.597c.842-.134 1.688-.209 2.527-.209zm-3.043 47.161c8.115 3.362 11.982 12.699 8.622 20.814-3.362 8.115-12.699 11.984-20.815 8.621-.821-.34-1.622-.755-2.389-1.236-.294-.203-.591-.4-.892-.593-.046-.03-.095-.052-.141-.081l-22.699-15.162c3.265-5.872 5.895-12.144 7.79-18.724l28.108 5.587c.828.197 1.64.453 2.416.774zm-20.86 42.408c6.212 6.211 6.212 16.317 0 22.528-6.212 6.214-16.318 6.212-22.528 0-.631-.63-1.211-1.319-1.732-2.055-.193-.299-.392-.594-.596-.886-.03-.043-.064-.081-.095-.123l-15.187-22.722c5.296-4.225 10.106-9.033 14.332-14.327l23.876 15.948c.687.498 1.337 1.042 1.93 1.637zm-35.499 31.196c3.361 8.115-.507 17.452-8.622 20.813-8.115 3.36-17.452-.507-20.813-8.62-.342-.825-.615-1.687-.815-2.567-.064-.349-.134-.696-.21-1.043-.012-.057-.032-.11-.045-.166l-5.323-26.739c6.581-1.893 12.854-4.52 18.727-7.783l15.946 23.857c.444.724.835 1.476 1.155 2.248zm-44.736 15.235c0 8.784-7.146 15.931-15.931 15.931s-15.93-7.146-15.93-15.931c0-.892.077-1.79.229-2.681.074-.349.143-.698.206-1.05.009-.051.011-.1.019-.151l5.32-26.765c3.334.378 6.722.578 10.156.578 3.423 0 6.8-.199 10.125-.573l5.597 28.115c.134.842.209 1.688.209 2.527zm-47.162-3.043c-3.361 8.113-12.697 11.981-20.814 8.622-8.115-3.362-11.983-12.699-8.622-20.813.342-.824.756-1.626 1.237-2.39.202-.293.399-.59.591-.89.028-.043.049-.089.076-.133l15.169-22.71c5.872 3.265 12.143 5.895 18.724 7.79l-5.586 28.104c-.197.83-.453 1.643-.775 2.42zm-42.406-20.86c-3.009 3.01-7.01 4.666-11.265 4.666s-8.256-1.656-11.265-4.666c-6.211-6.211-6.211-16.317.001-22.53.629-.629 1.318-1.209 2.055-1.731.298-.192.594-.391.886-.595.045-.031.085-.068.129-.1l22.716-15.183c4.225 5.296 9.033 10.106 14.328 14.333l-15.945 23.871c-.5.69-1.046 1.341-1.64 1.935zm-31.196-35.499c-8.117 3.361-17.452-.508-20.814-8.622-1.628-3.932-1.628-8.262 0-12.192 1.628-3.932 4.69-6.993 8.622-8.622.824-.341 1.684-.614 2.565-.814.348-.064.696-.134 1.042-.21.055-.012.108-.031.162-.044l26.743-5.324c1.892 6.582 4.52 12.854 7.783 18.727l-23.853 15.943c-.724.446-1.477.837-2.25 1.158zm-15.236-44.736c-8.784 0-15.931-7.146-15.931-15.931s7.146-15.931 15.931-15.931c.89 0 1.79.077 2.684.229.348.074.696.143 1.046.205.05.009.099.011.148.019l26.768 5.321c-.377 3.335-.577 6.723-.577 10.157 0 3.423.199 6.8.573 10.125l-28.116 5.597c-.842.134-1.688.209-2.526.209zm3.043-47.161c-3.932-1.629-6.993-4.69-8.622-8.622-1.628-3.931-1.628-8.261 0-12.192 3.361-8.116 12.697-11.986 20.814-8.621.822.34 1.623.755 2.39 1.237.293.202.589.399.89.591.044.028.091.05.136.078l22.705 15.166c-3.265 5.872-5.895 12.144-7.79 18.724l-28.108-5.587c-.827-.197-1.638-.453-2.415-.774zm20.859-42.408c-6.211-6.211-6.211-16.317 0-22.529 3.009-3.009 7.009-4.665 11.265-4.665 4.255 0 8.255 1.656 11.264 4.664.631.632 1.212 1.322 1.735 2.06.167.258.34.512.515.765-.001 0 15.36 22.965 15.36 22.965-5.295 4.224-10.104 9.032-14.331 14.326l-23.879-15.95c-.688-.499-1.336-1.043-1.929-1.636zm36.737-28.807c-.481-.764-.896-1.565-1.237-2.389-3.361-8.115.506-17.452 8.621-20.813 8.115-3.362 17.453.506 20.814 8.62.341.824.614 1.685.815 2.564.064.351.135.699.211 1.048.012.054.03.105.043.159l5.324 26.744c-6.582 1.893-12.855 4.521-18.729 7.784l-15.354-22.955c-.167-.255-.334-.511-.508-.762zm43.5-17.624c0-8.784 7.146-15.931 15.93-15.931s15.931 7.146 15.931 15.931c0 .891-.077 1.79-.229 2.684-.074.348-.143.696-.205 1.047-.009.049-.011.097-.019.146l-5.321 26.769c-3.335-.377-6.723-.577-10.157-.577-3.423 0-6.8.199-10.125.573l-5.596-28.11c-.135-.842-.209-1.69-.209-2.532zm47.16 3.043c3.362-8.115 12.703-11.981 20.814-8.622 8.115 3.362 11.983 12.699 8.621 20.815-.34.821-.755 1.622-1.236 2.389-.203.294-.4.591-.593.892-.03.046-.052.095-.081.142l-15.162 22.698c-5.872-3.265-12.144-5.895-18.724-7.79l5.587-28.108c.197-.828.453-1.64.774-2.416zm42.408 20.86c6.21-6.212 16.316-6.214 22.528 0 6.212 6.211 6.212 16.317 0 22.528-.63.631-1.319 1.211-2.055 1.732-.299.193-.594.392-.886.596-.043.03-.081.064-.123.095l-22.723 15.188c-4.225-5.296-9.033-10.106-14.327-14.333l15.948-23.875c.499-.688 1.043-1.338 1.638-1.931zm31.196 35.499c8.117-3.364 17.452.507 20.813 8.622s-.506 17.452-8.62 20.813c-.825.342-1.687.615-2.567.815-.349.064-.696.134-1.043.21-.057.012-.11.032-.166.045l-26.739 5.323c-1.892-6.582-4.52-12.854-7.783-18.727l23.857-15.946c.724-.444 1.476-.835 2.248-1.155zm-104.834 135.667c-41.355 0-75-33.645-75-75s33.645-75 75-75 75 33.645 75 75-33.645 75-75 75zm170.413-245.412c6.247 6.246 9.687 14.552 9.687 23.387 0 8.834-3.44 17.14-9.688 23.387-1.679 1.68-3.561 3.19-5.592 4.49-.042.027-.083.055-.125.082l-48.918 32.696c-.349-7.424-3.346-14.746-9.004-20.403-5.653-5.652-12.965-8.649-20.384-9.003l32.639-48.864c.041-.059.078-.122.119-.181 1.3-2.031 2.811-3.912 4.491-5.592 6.247-6.247 14.553-9.688 23.387-9.688 8.835 0 17.141 3.441 23.388 9.689zm-103.501-52.242c8.164-3.383 17.154-3.38 25.314-.001 8.162 3.381 14.519 9.738 17.899 17.9s3.381 17.152.001 25.314c-.909 2.195-2.069 4.311-3.448 6.288-.028.04-.057.082-.084.123l-32.682 48.928c-3.164-6.726-8.735-12.343-16.127-15.406-7.385-3.058-15.289-3.027-22.277-.516l11.455-57.632c.016-.072.026-.145.041-.217.423-2.371 1.098-4.687 2.009-6.884 3.381-8.16 9.738-14.517 17.899-17.897zm-66.912-18.346c18.237 0 33.074 14.837 33.074 33.074 0 2.378-.262 4.776-.778 7.13-.011.049-.021.098-.031.146l-11.471 57.709c-5.497-5.001-12.794-8.059-20.794-8.059-7.994 0-15.285 3.052-20.78 8.047l-11.471-57.628c-.013-.072-.031-.143-.045-.215-.517-2.357-.779-4.755-.779-7.13 0-18.237 14.838-33.074 33.075-33.074zm-170.413 70.587c6.247-6.246 14.553-9.688 23.387-9.688s17.14 3.441 23.387 9.688c1.68 1.679 3.19 3.561 4.49 5.592.027.042.054.083.082.125l20.734 31.021c2.302 3.443 6.96 4.369 10.403 2.067s4.369-6.959 2.067-10.403l-20.695-30.961c-.039-.061-.083-.119-.123-.18-1.379-1.979-2.539-4.094-3.448-6.289-3.381-8.162-3.381-17.152 0-25.314s9.738-14.52 17.9-17.9c16.848-6.979 36.235 1.052 43.214 17.9.909 2.194 1.584 4.511 2.008 6.885.009.049.018.098.028.146l11.487 57.708c-6.993-2.518-14.905-2.551-22.296.51-10.638 4.406-17.516 14.101-18.854 24.783-2.658-.732-5.431-1.109-8.262-1.109-8.262 0-16.029 3.217-21.871 9.059-5.652 5.653-8.65 12.966-9.004 20.383l-48.862-32.639c-.059-.041-.122-.078-.181-.119-2.031-1.3-3.912-2.811-5.592-4.49-6.247-6.247-9.688-14.553-9.688-23.387.002-8.835 3.442-17.141 9.689-23.388zm-52.242 78.186c3.381-8.162 9.737-14.52 17.899-17.899 8.162-3.382 17.152-3.381 25.314-.001 2.195.909 4.311 2.069 6.289 3.448.041.028.082.057.123.084l48.929 32.683c-6.725 3.164-12.343 8.735-15.405 16.127-2.969 7.169-3.149 15.021-.54 22.272l-57.608-11.45c-.072-.016-.145-.026-.217-.041-2.37-.423-4.686-1.098-6.883-2.009-8.162-3.381-14.519-9.738-17.9-17.899-3.382-8.162-3.382-17.152-.001-25.315zm-18.345 92.227c0-18.237 14.837-33.074 33.075-33.074 2.377 0 4.776.262 7.129.778.049.011.097.021.146.031l57.71 11.471c-5.002 5.497-8.06 12.794-8.06 20.794 0 7.993 3.052 15.284 8.047 20.78l-57.627 11.471c-.075.013-.148.032-.222.046-2.351.516-4.748.777-7.123.777-18.238 0-33.075-14.837-33.075-33.074zm18.345 92.227c-3.381-8.162-3.381-17.152 0-25.314 3.381-8.161 9.738-14.519 17.9-17.899 2.197-.91 4.513-1.586 6.883-2.008.05-.009.099-.019.148-.028l57.684-11.483c-2.616 7.257-2.439 15.116.533 22.292 3.059 7.385 8.669 12.953 15.386 16.119l-48.851 32.652c-.061.04-.12.083-.181.123-1.978 1.379-4.094 2.539-6.289 3.448-16.849 6.976-36.234-1.053-43.213-17.902zm52.242 78.185c-6.247-6.246-9.688-14.552-9.688-23.387 0-8.834 3.44-17.14 9.688-23.387 1.68-1.68 3.561-3.19 5.592-4.49.042-.027.083-.055.125-.082l48.919-32.697c.35 7.424 3.347 14.746 9.004 20.403 5.487 5.488 12.672 8.658 20.37 9.023l-32.625 48.842c-.042.06-.079.123-.12.183-1.3 2.031-2.811 3.912-4.491 5.592-6.247 6.247-14.553 9.688-23.387 9.688s-17.14-3.44-23.387-9.688zm78.186 52.243c-8.162-3.381-14.519-9.738-17.9-17.9s-3.381-17.152 0-25.314c.909-2.194 2.069-4.31 3.448-6.288.028-.04.057-.082.084-.123l32.682-48.928c3.164 6.726 8.735 12.343 16.127 15.406 7.385 3.058 15.289 3.028 22.277.516l-11.455 57.631c-.016.072-.026.144-.041.216-.425 2.374-1.1 4.69-2.009 6.885-6.978 16.848-26.363 24.876-43.213 17.899zm92.227 18.345c-18.237 0-33.075-14.837-33.075-33.074 0-2.375.262-4.773.78-7.13.011-.049.021-.098.03-.146l11.471-57.71c5.497 5.002 12.793 8.06 20.794 8.06 7.994 0 15.284-3.052 20.78-8.047l11.471 57.627c.013.074.032.148.046.222.516 2.352.777 4.748.777 7.124 0 18.237-14.837 33.074-33.074 33.074zm110.126-36.245c-3.381 8.162-9.737 14.52-17.899 17.9-16.854 6.979-36.235-1.054-43.214-17.9-.91-2.197-1.586-4.513-2.008-6.884-.009-.049-.019-.099-.028-.147l-11.488-57.708c6.993 2.518 14.905 2.552 22.296-.51 7.385-3.059 12.953-8.668 16.119-15.386l32.652 48.852c.04.063.085.122.126.185 1.378 1.977 2.537 4.09 3.446 6.284 3.379 8.162 3.379 17.152-.002 25.314zm60.286-34.342c-6.246 6.247-14.552 9.687-23.387 9.687-8.834 0-17.14-3.44-23.387-9.688-1.68-1.679-3.19-3.561-4.49-5.592-.027-.042-.055-.083-.082-.125l-32.696-48.918c7.425-.349 14.746-3.346 20.403-9.004 5.652-5.653 8.649-12.966 9.003-20.383l48.863 32.639c.059.041.122.078.181.119 2.031 1.3 3.912 2.811 5.592 4.491 6.247 6.247 9.688 14.553 9.688 23.387.001 8.834-3.44 17.14-9.688 23.387zm52.243-78.186c-3.381 8.162-9.738 14.519-17.9 17.899-8.162 3.383-17.152 3.38-25.314.001-2.195-.909-4.311-2.069-6.288-3.448-.04-.028-.082-.057-.123-.084l-48.928-32.682c6.726-3.164 12.343-8.735 15.406-16.127 3.058-7.385 3.029-15.289.517-22.277l57.63 11.455c.072.016.145.026.217.041 2.371.423 4.686 1.098 6.884 2.009 8.162 3.381 14.52 9.738 17.899 17.899 3.38 8.161 3.38 17.151 0 25.314zm-14.729-59.153c-2.378 0-4.776-.262-7.13-.778-.049-.011-.098-.021-.146-.031l-57.71-11.471c5.002-5.497 8.06-12.794 8.06-20.794 0-7.994-3.052-15.285-8.046-20.78l57.626-11.471c.074-.013.148-.032.222-.046 2.352-.516 4.748-.777 7.124-.777 18.237 0 33.074 14.837 33.074 33.074s-14.837 33.074-33.074 33.074z" data-original="#000000" class="active-path" data-old_color="#000000" fill="#FFFFFF"/><path d="m256 233.5c-12.407 0-22.5 10.094-22.5 22.5s10.093 22.5 22.5 22.5c12.406 0 22.5-10.094 22.5-22.5s-10.094-22.5-22.5-22.5zm0 30c-4.136 0-7.5-3.364-7.5-7.5s3.364-7.5 7.5-7.5 7.5 3.364 7.5 7.5-3.364 7.5-7.5 7.5z" data-original="#000000" class="active-path" data-old_color="#000000" fill="#FFFFFF"/><path d="m298.427 213.573c-5.682-5.681-13.196-8.76-21.106-8.76h-.101c-5.591-5.579-13.256-8.813-21.22-8.813s-15.629 3.234-21.219 8.813h-.102c-7.909 0-15.425 3.08-21.105 8.76-5.705 5.705-8.786 13.261-8.76 21.207-5.579 5.591-8.814 13.256-8.814 21.22s3.235 15.629 8.814 21.22c-.026 7.946 3.055 15.502 8.76 21.207 5.681 5.681 13.195 8.76 21.103 8.76.035 0 .069-.001.104-.001 5.591 5.58 13.255 8.814 21.219 8.814s15.629-3.235 21.22-8.814h.102c7.909 0 15.425-3.079 21.105-8.759 5.705-5.706 8.786-13.261 8.759-21.208 5.58-5.59 8.814-13.255 8.814-21.219s-3.234-15.629-8.814-21.219c.027-7.947-3.054-15.502-8.759-21.208zm-3.468 54.447c-2.194 1.642-3.318 4.349-2.934 7.062.676 4.748-.857 9.391-4.206 12.738-3.347 3.349-7.994 4.882-12.739 4.206-2.706-.381-5.419.738-7.061 2.934-2.872 3.838-7.252 6.04-12.019 6.04s-9.147-2.202-12.02-6.041c-1.428-1.909-3.662-3.008-6.004-3.008-.351 0-.704.024-1.057.074-4.748.677-9.391-.858-12.739-4.206s-4.881-7.991-4.207-12.739c.385-2.713-.739-5.419-2.933-7.061-3.838-2.872-6.04-7.252-6.04-12.019s2.202-9.147 6.041-12.02c2.194-1.642 3.318-4.348 2.933-7.061-.674-4.748.859-9.392 4.207-12.739 3.348-3.35 7.993-4.883 12.74-4.207 2.718.388 5.42-.739 7.06-2.934 2.872-3.838 7.253-6.04 12.02-6.04s9.148 2.202 12.02 6.04c1.642 2.194 4.352 3.318 7.061 2.934 4.742-.678 9.391.858 12.739 4.207 3.349 3.348 4.882 7.99 4.206 12.738-.385 2.713.739 5.42 2.934 7.062 3.839 2.872 6.041 7.253 6.041 12.02s-2.204 9.147-6.043 12.02z" data-original="#000000" class="active-path" data-old_color="#000000" fill="#FFFFFF"/></g></g> </svg>
