<?xml version="1.0"?>
<svg xmlns="http://www.w3.org/2000/svg" viewBox="0 0 512 512" width="512px" height="512px"><g transform="matrix(-1 0 0 1 512 0)"><g id="Barn"><g id="Outline"><path d="M176,240a8,8,0,0,0,8-8V200a40,40,0,0,0-80,0v32a8,8,0,0,0,8,8Zm-56-40a24,24,0,0,1,48,0v24H120Z" data-original="#000000" class="active-path" data-old_color="#000000" fill="#FFFFFF"/><path d="M511.019,244.162c-40.28-74.579-37.682-71.9-40.55-73.944C364.3,95.032,368.817,96,364,96c-232.184.561-220.662-1.323-224.6,1.457L104.385,121.4a8,8,0,0,0,9.031,13.208l30.533-20.877,97.657,68.292L272,249.712V416H224c0-156.112.824-145.938-1.879-149.146-4.4-5.234-1.935-1.843-150.121-2.854-.067,0-.133.008-.2.01a7.946,7.946,0,0,0-3.094.7,8.168,8.168,0,0,0-2.282,1.554,7.948,7.948,0,0,0-2.42,5.627c-.008.66,0,110.96,0,144.1H16V249.679l30.405-69.256,14.111-9.649a8,8,0,1,0-9.032-13.207C36.127,168.5,34.241,168.329,32.675,171.9-2.385,251.759.233,245.366.044,247.163c-.032.3-.039.736-.044.837V424a8,8,0,0,0,8,8H504a8,8,0,0,0,8-8V248A8.245,8.245,0,0,0,511.019,244.162ZM197.4,280,144,336.368,90.6,280ZM80,292.077,132.98,348,80,403.923ZM90.6,416,144,359.632,197.4,416ZM208,403.923,155.02,348,208,292.077ZM270.81,208H392a8,8,0,0,0,0-16c-31.578,0-127.738-.01-128.366.019-8.484-18.075-7.954-19.682-11.049-21.847L238.039,160H312a8,8,0,0,0,0-16c-102.04.015-96.009-.036-96.784.04L169.4,112H361.437l44.8,32H376a8,8,0,0,0,0,16c50.369-.3,48.475.66,51.5-.813l32.15,22.964L464.925,192H424a8,8,0,0,0,0,16c50.6-.052,48.007.121,49.424-.134L490.639,240H285.178ZM496,416H288V256H496Z" data-original="#000000" class="active-path" data-old_color="#000000" fill="#FFFFFF"/><circle cx="80" cy="144" r="8" data-original="#000000" class="active-path" data-old_color="#000000" fill="#FFFFFF"/><circle cx="344" cy="152" r="8" data-original="#000000" class="active-path" data-old_color="#000000" fill="#FFFFFF"/><path d="M312,352h64a8,8,0,0,0,8-8V296a8,8,0,0,0-8-8H312a8,8,0,0,0-8,8v48A8,8,0,0,0,312,352Zm8-48h48v32H320Z" data-original="#000000" class="active-path" data-old_color="#000000" fill="#FFFFFF"/><path d="M408,352h64a8,8,0,0,0,8-8V296a8,8,0,0,0-8-8H408a8,8,0,0,0-8,8v48A8,8,0,0,0,408,352Zm8-48h48v32H416Z" data-original="#000000" class="active-path" data-old_color="#000000" fill="#FFFFFF"/><path d="M312,384h64a8,8,0,0,0,0-16H312a8,8,0,0,0,0,16Z" data-original="#000000" class="active-path" data-old_color="#000000" fill="#FFFFFF"/><path d="M408,384h64a8,8,0,0,0,0-16H408a8,8,0,0,0,0,16Z" data-original="#000000" class="active-path" data-old_color="#000000" fill="#FFFFFF"/></g></g></g> </svg>
